<svg width="240" height="46" viewBox="0 0 240 46" fill="none" xmlns="http://www.w3.org/2000/svg">
<rect x="4" y="4" width="24" height="24" rx="8" fill="#E5ECF6"/>
<rect x="4" y="4" width="24" height="24" rx="8" fill="#E5ECF6"/>
<path fill-rule="evenodd" clip-rule="evenodd" d="M16.0001 13.5C16.0001 13.5 17.0356 13.5 17.7678 14.2322C17.7678 14.2322 18.5001 14.9645 18.5001 16C18.5001 16 18.5001 17.0355 17.7678 17.7678C17.7678 17.7678 17.0356 18.5 16.0001 18.5C16.0001 18.5 14.9645 18.5 14.2323 17.7678C14.2323 17.7678 13.5001 17.0355 13.5001 16C13.5001 16 13.5001 14.9645 14.2323 14.2322C14.2323 14.2322 14.9645 13.5 16.0001 13.5ZM16.0001 14.5C16.0001 14.5 15.3787 14.5 14.9394 14.9393C14.9394 14.9393 14.5001 15.3787 14.5001 16C14.5001 16 14.5001 16.6213 14.9394 17.0607C14.9394 17.0607 15.3787 17.5 16.0001 17.5C16.0001 17.5 16.6214 17.5 17.0607 17.0607C17.0607 17.0607 17.5001 16.6213 17.5001 16C17.5001 16 17.5001 15.3787 17.0607 14.9393C17.0607 14.9393 16.6214 14.5 16.0001 14.5Z" fill="#1C1C1C"/>
<path d="M13.1722 13.1725C13.2659 13.0787 13.3188 12.9513 13.3188 12.8187C13.3188 12.6862 13.2662 12.5591 13.1726 12.4654C13.0788 12.3716 12.9514 12.3187 12.8188 12.3187C12.6863 12.3187 12.5592 12.3713 12.4654 12.465C11.7742 13.1555 11.3954 14.0561 11.3954 14.0561C10.9999 14.9869 10.9999 16 10.9999 16C10.9999 17.0131 11.3961 17.9455 11.3961 17.9455C11.7742 18.8445 12.4654 19.535 12.4654 19.535C12.5592 19.6286 12.6863 19.6812 12.8188 19.6812C12.9514 19.6812 13.0788 19.6284 13.1726 19.5346C13.2662 19.4408 13.3188 19.3137 13.3188 19.1812C13.3187 19.0486 13.266 18.9212 13.1722 18.8275C12.6198 18.2758 12.3165 17.5544 12.3165 17.5544C11.9999 16.8094 11.9999 16 11.9999 16C11.9999 15.1905 12.3172 14.4438 12.3172 14.4438C12.6198 13.7242 13.1722 13.1725 13.1722 13.1725Z" fill="#1C1C1C"/>
<path d="M19.5349 12.4652C20.226 13.1556 20.604 14.0544 20.604 14.0544C21.0002 14.9869 21.0002 16 21.0002 16C21.0002 17.0131 20.6047 17.9438 20.6047 17.9438C20.2259 18.8445 19.5347 19.535 19.5347 19.535C19.4472 19.6224 19.3304 19.6742 19.2069 19.6806C19.1984 19.681 19.1898 19.6812 19.1813 19.6812C19.0486 19.6812 18.9213 19.6285 18.8276 19.5346C18.7397 19.4466 18.6878 19.3291 18.6819 19.205C18.6815 19.1971 18.6813 19.1891 18.6813 19.1812C18.6814 19.0486 18.7341 18.9212 18.8279 18.8275C19.3803 18.2758 19.6829 17.5561 19.6829 17.5561C20.0002 16.8094 20.0002 16 20.0002 16C20.0002 15.1905 19.6836 14.4455 19.6836 14.4455C19.3803 13.7242 18.8279 13.1725 18.8279 13.1725C18.7341 13.0787 18.6813 12.9514 18.6813 12.8187C18.6813 12.6872 18.7331 12.561 18.8255 12.4675L18.8276 12.4654C18.9104 12.3825 19.0197 12.3313 19.1364 12.3207C19.1512 12.3194 19.1661 12.3187 19.181 12.3187C19.3114 12.3187 19.4369 12.3696 19.5303 12.4606L19.5349 12.4652Z" fill="#1C1C1C"/>
<path d="M11.4036 11.4036L11.4059 11.4013C11.4983 11.3077 11.55 11.1815 11.55 11.05C11.55 10.9173 11.4972 10.79 11.4033 10.6962L11.399 10.6919C11.3056 10.601 11.1804 10.55 11.05 10.55C11.0352 10.5501 11.0199 10.5507 11.0051 10.5521C10.8884 10.5626 10.779 10.6138 10.6962 10.6968C9.66247 11.7325 9.08988 13.0795 9.08988 13.0795C8.5 14.4811 8.5 16 8.5 16C8.5 17.519 9.0892 18.919 9.0892 18.919C9.66229 20.2675 10.6962 21.3033 10.6962 21.3033C10.7899 21.3971 10.917 21.4499 11.0496 21.45C11.0574 21.45 11.0658 21.4499 11.0736 21.4495C11.1978 21.4436 11.3153 21.3917 11.4033 21.3039C11.4972 21.2101 11.55 21.0828 11.55 20.9501C11.55 20.9416 11.5498 20.9331 11.5494 20.9246C11.5431 20.8011 11.4913 20.6843 11.4039 20.5968C10.5069 19.6981 10.0109 18.5311 10.0109 18.5311C9.5 17.3171 9.5 16 9.5 16C9.5 14.683 10.0102 13.4706 10.0102 13.4706C10.5068 12.3022 11.4036 11.4036 11.4036 11.4036Z" fill="#1C1C1C"/>
<path d="M21.3043 10.6971L21.3036 10.6965C21.21 10.6028 21.083 10.5502 20.9505 10.55C20.8181 10.55 20.6906 10.6026 20.5968 10.6962C20.5031 10.7899 20.4501 10.9174 20.4501 11.05C20.4501 11.1825 20.5026 11.3095 20.5962 11.4033C21.4932 12.302 21.9892 13.469 21.9892 13.469C22.5001 14.683 22.5001 16 22.5001 16C22.5001 17.3171 21.9899 18.5295 21.9899 18.5295C21.4932 19.6981 20.5962 20.5968 20.5962 20.5968C20.5026 20.6906 20.4501 20.8176 20.4501 20.95C20.4502 21.0827 20.503 21.2102 20.5968 21.3039C20.6906 21.3975 20.8176 21.45 20.9501 21.45C21.0827 21.4499 21.2103 21.3971 21.304 21.3033C22.3378 20.2675 22.9102 18.9206 22.9102 18.9206C23.5001 17.519 23.5001 16 23.5001 16C23.5001 14.4811 22.9109 13.0811 22.9109 13.0811C22.3379 11.7328 21.3043 10.6971 21.3043 10.6971Z" fill="#1C1C1C"/>
<path d="M37.6506 19H36.358L40.0966 8.81818H41.3693L45.108 19H43.8153L40.7727 10.429H40.6932L37.6506 19ZM38.1278 15.0227H43.3381V16.1165H38.1278V15.0227ZM47.7081 14.4062V19H46.5348V11.3636H47.6683V12.5568H47.7678C47.9467 12.169 48.2185 11.8575 48.5831 11.6222C48.9477 11.3835 49.4183 11.2642 49.995 11.2642C50.5121 11.2642 50.9645 11.3703 51.3523 11.5824C51.7401 11.7912 52.0417 12.1094 52.2571 12.5369C52.4725 12.9612 52.5803 13.4981 52.5803 14.1477V19H51.407V14.2273C51.407 13.6274 51.2512 13.16 50.9396 12.8253C50.6281 12.4872 50.2005 12.3182 49.657 12.3182C49.2824 12.3182 48.9477 12.3994 48.6527 12.5618C48.361 12.7242 48.1307 12.9612 47.9616 13.2727C47.7926 13.5843 47.7081 13.9621 47.7081 14.4062ZM57.6078 19.1591C56.9714 19.1591 56.4096 18.9983 55.9224 18.6768C55.4352 18.352 55.054 17.8946 54.7789 17.3047C54.5038 16.7114 54.3663 16.0104 54.3663 15.2017C54.3663 14.3996 54.5038 13.7036 54.7789 13.1136C55.054 12.5237 55.4368 12.0679 55.9274 11.7464C56.4179 11.425 56.9847 11.2642 57.6277 11.2642C58.1248 11.2642 58.5176 11.3471 58.8059 11.5128C59.0976 11.6752 59.3197 11.8608 59.4721 12.0696C59.6279 12.2751 59.7489 12.4441 59.835 12.5767H59.9345V8.81818H61.1078V19H59.9743V17.8267H59.835C59.7489 17.9659 59.6262 18.1416 59.4672 18.3537C59.3081 18.5625 59.081 18.7498 58.786 18.9155C58.4911 19.0779 58.0983 19.1591 57.6078 19.1591ZM57.7669 18.1051C58.2375 18.1051 58.6352 17.9825 58.96 17.7372C59.2849 17.4886 59.5318 17.1456 59.7008 16.7081C59.8699 16.2673 59.9544 15.7585 59.9544 15.1818C59.9544 14.6117 59.8715 14.1129 59.7058 13.6854C59.5401 13.2545 59.2948 12.9197 58.97 12.6811C58.6452 12.4392 58.2441 12.3182 57.7669 12.3182C57.2697 12.3182 56.8554 12.4458 56.524 12.701C56.1958 12.9529 55.9489 13.2959 55.7832 13.7301C55.6208 14.161 55.5396 14.6449 55.5396 15.1818C55.5396 15.7254 55.6225 16.2192 55.7882 16.6634C55.9572 17.1042 56.2058 17.4555 56.5339 17.7173C56.8654 17.9759 57.2763 18.1051 57.7669 18.1051ZM63.4196 19V11.3636H64.5929V19H63.4196ZM64.0162 10.0909C63.7875 10.0909 63.5903 10.013 63.4245 9.85724C63.2621 9.70147 63.1809 9.5142 63.1809 9.29545C63.1809 9.0767 63.2621 8.88944 63.4245 8.73366C63.5903 8.57789 63.7875 8.5 64.0162 8.5C64.2449 8.5 64.4404 8.57789 64.6028 8.73366C64.7685 8.88944 64.8514 9.0767 64.8514 9.29545C64.8514 9.5142 64.7685 9.70147 64.6028 9.85724C64.4404 10.013 64.2449 10.0909 64.0162 10.0909ZM70.8384 19V8.81818H72.0714V17.9062H76.8043V19H70.8384ZM80.8015 19.179C80.3176 19.179 79.8784 19.0878 79.484 18.9055C79.0896 18.7199 78.7764 18.4531 78.5444 18.1051C78.3124 17.7538 78.1964 17.3295 78.1964 16.8324C78.1964 16.3949 78.2826 16.0402 78.4549 15.7685C78.6272 15.4934 78.8576 15.2779 79.146 15.1222C79.4343 14.9664 79.7525 14.8504 80.1005 14.7741C80.4518 14.6946 80.8048 14.6316 81.1594 14.5852C81.6235 14.5256 81.9996 14.4808 82.288 14.451C82.5797 14.4179 82.7918 14.3632 82.9244 14.2869C83.0603 14.2107 83.1282 14.0781 83.1282 13.8892V13.8494C83.1282 13.3589 82.994 12.9777 82.7255 12.706C82.4603 12.4342 82.0576 12.2983 81.5174 12.2983C80.9573 12.2983 80.5181 12.4209 80.1999 12.6662C79.8817 12.9115 79.658 13.1733 79.5288 13.4517L78.4151 13.054C78.614 12.59 78.8791 12.2287 79.2106 11.9702C79.5453 11.7083 79.9099 11.526 80.3043 11.4233C80.7021 11.3172 81.0932 11.2642 81.4776 11.2642C81.7229 11.2642 82.0046 11.294 82.3228 11.3537C82.6443 11.41 82.9542 11.5277 83.2525 11.7067C83.5541 11.8857 83.8043 12.1558 84.0032 12.517C84.2021 12.8783 84.3015 13.3622 84.3015 13.9688V19H83.1282V17.9659H83.0685C82.989 18.1316 82.8564 18.3089 82.6708 18.4979C82.4852 18.6868 82.2383 18.8475 81.93 18.9801C81.6218 19.1127 81.2456 19.179 80.8015 19.179ZM80.9805 18.125C81.4445 18.125 81.8356 18.0339 82.1538 17.8516C82.4753 17.6693 82.7172 17.4339 82.8796 17.1456C83.0453 16.8572 83.1282 16.554 83.1282 16.2358V15.1619C83.0785 15.2216 82.9691 15.2763 82.8001 15.326C82.6344 15.3724 82.4421 15.4138 82.2234 15.4503C82.0079 15.4834 81.7975 15.5133 81.592 15.5398C81.3898 15.563 81.2257 15.5829 81.0998 15.5994C80.7949 15.6392 80.5098 15.7038 80.2447 15.7933C79.9828 15.8795 79.7707 16.0104 79.6083 16.1861C79.4492 16.3584 79.3697 16.5937 79.3697 16.892C79.3697 17.2997 79.5205 17.608 79.8221 17.8168C80.127 18.0223 80.5131 18.125 80.9805 18.125ZM87.6163 14.4062V19H86.443V11.3636H87.5765V12.5568H87.676C87.8549 12.169 88.1267 11.8575 88.4913 11.6222C88.8559 11.3835 89.3265 11.2642 89.9032 11.2642C90.4203 11.2642 90.8727 11.3703 91.2605 11.5824C91.6483 11.7912 91.9499 12.1094 92.1653 12.5369C92.3807 12.9612 92.4885 13.4981 92.4885 14.1477V19H91.3152V14.2273C91.3152 13.6274 91.1594 13.16 90.8478 12.8253C90.5363 12.4872 90.1087 12.3182 89.5652 12.3182C89.1906 12.3182 88.8559 12.3994 88.5609 12.5618C88.2692 12.7242 88.0389 12.9612 87.8699 13.2727C87.7008 13.5843 87.6163 13.9621 87.6163 14.4062ZM97.8342 19.1591C97.0984 19.1591 96.4637 18.9967 95.93 18.6719C95.3997 18.3438 94.9904 17.8864 94.7021 17.2997C94.417 16.7098 94.2745 16.0237 94.2745 15.2415C94.2745 14.4593 94.417 13.7699 94.7021 13.1733C94.9904 12.5734 95.3915 12.1061 95.9052 11.7713C96.4222 11.4332 97.0254 11.2642 97.7148 11.2642C98.1126 11.2642 98.5053 11.3305 98.8931 11.4631C99.2809 11.5956 99.6339 11.8111 99.9521 12.1094C100.27 12.4044 100.524 12.7955 100.713 13.2827C100.902 13.7699 100.996 14.3698 100.996 15.0824V15.5795H95.1097V14.5653H99.8029C99.8029 14.1345 99.7167 13.75 99.5444 13.4119C99.3754 13.0739 99.1334 12.8071 98.8185 12.6115C98.507 12.416 98.1391 12.3182 97.7148 12.3182C97.2475 12.3182 96.8432 12.4342 96.5018 12.6662C96.1637 12.8949 95.9035 13.1932 95.7212 13.5611C95.5389 13.929 95.4478 14.3234 95.4478 14.7443V15.4205C95.4478 15.9972 95.5472 16.486 95.7461 16.8871C95.9483 17.2848 96.2283 17.5881 96.5863 17.7969C96.9442 18.0024 97.3602 18.1051 97.8342 18.1051C98.1424 18.1051 98.4208 18.062 98.6694 17.9759C98.9213 17.8864 99.1384 17.7538 99.3207 17.5781C99.503 17.3991 99.6438 17.1771 99.7433 16.9119L100.877 17.2301C100.757 17.6146 100.557 17.9527 100.275 18.2443C99.9935 18.5327 99.6455 18.758 99.2312 18.9205C98.8169 19.0795 98.3512 19.1591 97.8342 19.1591ZM112.127 13.0739L111.074 13.3722C111.007 13.1965 110.909 13.0258 110.78 12.8601C110.654 12.6911 110.482 12.5518 110.263 12.4425C110.044 12.3331 109.764 12.2784 109.423 12.2784C108.956 12.2784 108.566 12.3861 108.255 12.6016C107.946 12.8137 107.792 13.0838 107.792 13.4119C107.792 13.7036 107.898 13.9339 108.11 14.103C108.323 14.272 108.654 14.4129 109.105 14.5256L110.238 14.804C110.921 14.9697 111.43 15.2232 111.765 15.5646C112.099 15.9027 112.267 16.3385 112.267 16.8722C112.267 17.3097 112.141 17.7008 111.889 18.0455C111.64 18.3902 111.292 18.6619 110.845 18.8608C110.397 19.0597 109.877 19.1591 109.284 19.1591C108.505 19.1591 107.86 18.9901 107.35 18.652C106.839 18.3139 106.516 17.8201 106.38 17.1705L107.494 16.892C107.6 17.303 107.801 17.6113 108.096 17.8168C108.394 18.0223 108.783 18.125 109.264 18.125C109.811 18.125 110.245 18.009 110.566 17.777C110.891 17.5417 111.054 17.2599 111.054 16.9318C111.054 16.6667 110.961 16.4446 110.775 16.2656C110.59 16.0833 110.305 15.9474 109.92 15.858L108.647 15.5597C107.948 15.3939 107.434 15.1371 107.106 14.7891C106.781 14.4377 106.619 13.9986 106.619 13.4716C106.619 13.0407 106.74 12.6596 106.982 12.3281C107.227 11.9967 107.56 11.7365 107.981 11.5476C108.405 11.3587 108.886 11.2642 109.423 11.2642C110.179 11.2642 110.772 11.4299 111.203 11.7614C111.637 12.0928 111.945 12.5303 112.127 13.0739ZM118.845 15.8778V11.3636H120.019V19H118.845V17.7074H118.766C118.587 18.0952 118.308 18.425 117.931 18.6967C117.553 18.9652 117.075 19.0994 116.499 19.0994C116.021 19.0994 115.597 18.995 115.226 18.7862C114.855 18.5741 114.563 18.2559 114.351 17.8317C114.139 17.4041 114.033 16.8655 114.033 16.2159V11.3636H115.206V16.1364C115.206 16.6932 115.362 17.1373 115.673 17.4688C115.988 17.8002 116.389 17.9659 116.877 17.9659C117.168 17.9659 117.465 17.8913 117.767 17.7422C118.071 17.593 118.327 17.3643 118.532 17.0561C118.741 16.7479 118.845 16.3551 118.845 15.8778ZM122.327 19V8.81818H123.5V12.5767H123.599C123.686 12.4441 123.805 12.2751 123.957 12.0696C124.113 11.8608 124.335 11.6752 124.624 11.5128C124.915 11.3471 125.31 11.2642 125.807 11.2642C126.45 11.2642 127.017 11.425 127.507 11.7464C127.998 12.0679 128.38 12.5237 128.656 13.1136C128.931 13.7036 129.068 14.3996 129.068 15.2017C129.068 16.0104 128.931 16.7114 128.656 17.3047C128.38 17.8946 127.999 18.352 127.512 18.6768C127.025 18.9983 126.463 19.1591 125.827 19.1591C125.336 19.1591 124.943 19.0779 124.648 18.9155C124.353 18.7498 124.126 18.5625 123.967 18.3537C123.808 18.1416 123.686 17.9659 123.599 17.8267H123.46V19H122.327ZM123.48 15.1818C123.48 15.7585 123.565 16.2673 123.734 16.7081C123.903 17.1456 124.15 17.4886 124.474 17.7372C124.799 17.9825 125.197 18.1051 125.668 18.1051C126.158 18.1051 126.567 17.9759 126.896 17.7173C127.227 17.4555 127.476 17.1042 127.641 16.6634C127.81 16.2192 127.895 15.7254 127.895 15.1818C127.895 14.6449 127.812 14.161 127.646 13.7301C127.484 13.2959 127.237 12.9529 126.906 12.701C126.577 12.4458 126.165 12.3182 125.668 12.3182C125.19 12.3182 124.789 12.4392 124.464 12.6811C124.14 12.9197 123.894 13.2545 123.729 13.6854C123.563 14.1129 123.48 14.6117 123.48 15.1818ZM136.272 13.0739L135.218 13.3722C135.152 13.1965 135.054 13.0258 134.925 12.8601C134.799 12.6911 134.626 12.5518 134.408 12.4425C134.189 12.3331 133.909 12.2784 133.567 12.2784C133.1 12.2784 132.711 12.3861 132.399 12.6016C132.091 12.8137 131.937 13.0838 131.937 13.4119C131.937 13.7036 132.043 13.9339 132.255 14.103C132.467 14.272 132.799 14.4129 133.249 14.5256L134.383 14.804C135.066 14.9697 135.574 15.2232 135.909 15.5646C136.244 15.9027 136.411 16.3385 136.411 16.8722C136.411 17.3097 136.285 17.7008 136.033 18.0455C135.785 18.3902 135.437 18.6619 134.989 18.8608C134.542 19.0597 134.022 19.1591 133.428 19.1591C132.649 19.1591 132.005 18.9901 131.494 18.652C130.984 18.3139 130.661 17.8201 130.525 17.1705L131.638 16.892C131.745 17.303 131.945 17.6113 132.24 17.8168C132.538 18.0223 132.928 18.125 133.408 18.125C133.955 18.125 134.389 18.009 134.711 17.777C135.036 17.5417 135.198 17.2599 135.198 16.9318C135.198 16.6667 135.105 16.4446 134.92 16.2656C134.734 16.0833 134.449 15.9474 134.065 15.858L132.792 15.5597C132.093 15.3939 131.579 15.1371 131.251 14.7891C130.926 14.4377 130.763 13.9986 130.763 13.4716C130.763 13.0407 130.884 12.6596 131.126 12.3281C131.372 11.9967 131.705 11.7365 132.126 11.5476C132.55 11.3587 133.031 11.2642 133.567 11.2642C134.323 11.2642 134.916 11.4299 135.347 11.7614C135.781 12.0928 136.09 12.5303 136.272 13.0739ZM141.28 19.1591C140.564 19.1591 139.947 18.9901 139.43 18.652C138.913 18.3139 138.515 17.8482 138.237 17.255C137.959 16.6617 137.819 15.9839 137.819 15.2216C137.819 14.446 137.962 13.7616 138.247 13.1683C138.535 12.5717 138.936 12.1061 139.45 11.7713C139.967 11.4332 140.57 11.2642 141.26 11.2642C141.797 11.2642 142.281 11.3636 142.711 11.5625C143.142 11.7614 143.495 12.0398 143.77 12.3977C144.046 12.7557 144.216 13.1733 144.282 13.6506H143.109C143.02 13.3026 142.821 12.9943 142.513 12.7259C142.208 12.4541 141.797 12.3182 141.28 12.3182C140.822 12.3182 140.421 12.4375 140.077 12.6761C139.735 12.9115 139.468 13.2446 139.276 13.6754C139.087 14.103 138.993 14.6051 138.993 15.1818C138.993 15.7718 139.086 16.2855 139.271 16.723C139.46 17.1605 139.725 17.5002 140.067 17.7422C140.411 17.9841 140.816 18.1051 141.28 18.1051C141.585 18.1051 141.861 18.0521 142.11 17.946C142.358 17.84 142.569 17.6875 142.741 17.4886C142.914 17.2898 143.036 17.0511 143.109 16.7727H144.282C144.216 17.2235 144.052 17.6295 143.79 17.9908C143.532 18.3487 143.189 18.6338 142.761 18.8459C142.337 19.0547 141.843 19.1591 141.28 19.1591ZM145.998 19V11.3636H147.131V12.517H147.211C147.35 12.1392 147.602 11.8326 147.966 11.5973C148.331 11.362 148.742 11.2443 149.199 11.2443C149.286 11.2443 149.393 11.246 149.523 11.2493C149.652 11.2526 149.75 11.2576 149.816 11.2642V12.4574C149.776 12.4474 149.685 12.4325 149.542 12.4126C149.403 12.3894 149.256 12.3778 149.1 12.3778C148.729 12.3778 148.397 12.4557 148.106 12.6115C147.817 12.764 147.589 12.9761 147.42 13.2479C147.254 13.5163 147.171 13.8229 147.171 14.1676V19H145.998ZM151.207 19V11.3636H152.38V19H151.207ZM151.803 10.0909C151.575 10.0909 151.377 10.013 151.212 9.85724C151.049 9.70147 150.968 9.5142 150.968 9.29545C150.968 9.0767 151.049 8.88944 151.212 8.73366C151.377 8.57789 151.575 8.5 151.803 8.5C152.032 8.5 152.228 8.57789 152.39 8.73366C152.556 8.88944 152.638 9.0767 152.638 9.29545C152.638 9.5142 152.556 9.70147 152.39 9.85724C152.228 10.013 152.032 10.0909 151.803 10.0909ZM154.688 19V8.81818H155.861V12.5767H155.961C156.047 12.4441 156.166 12.2751 156.319 12.0696C156.474 11.8608 156.697 11.6752 156.985 11.5128C157.277 11.3471 157.671 11.2642 158.168 11.2642C158.811 11.2642 159.378 11.425 159.868 11.7464C160.359 12.0679 160.742 12.5237 161.017 13.1136C161.292 13.7036 161.43 14.3996 161.43 15.2017C161.43 16.0104 161.292 16.7114 161.017 17.3047C160.742 17.8946 160.361 18.352 159.873 18.6768C159.386 18.9983 158.824 19.1591 158.188 19.1591C157.698 19.1591 157.305 19.0779 157.01 18.9155C156.715 18.7498 156.488 18.5625 156.329 18.3537C156.17 18.1416 156.047 17.9659 155.961 17.8267H155.822V19H154.688ZM155.841 15.1818C155.841 15.7585 155.926 16.2673 156.095 16.7081C156.264 17.1456 156.511 17.4886 156.836 17.7372C157.161 17.9825 157.558 18.1051 158.029 18.1051C158.519 18.1051 158.929 17.9759 159.257 17.7173C159.588 17.4555 159.837 17.1042 160.003 16.6634C160.172 16.2192 160.256 15.7254 160.256 15.1818C160.256 14.6449 160.173 14.161 160.008 13.7301C159.845 13.2959 159.598 12.9529 159.267 12.701C158.939 12.4458 158.526 12.3182 158.029 12.3182C157.552 12.3182 157.151 12.4392 156.826 12.6811C156.501 12.9197 156.256 13.2545 156.09 13.6854C155.924 14.1129 155.841 14.6117 155.841 15.1818ZM166.426 19.1591C165.69 19.1591 165.055 18.9967 164.522 18.6719C163.992 18.3438 163.582 17.8864 163.294 17.2997C163.009 16.7098 162.866 16.0237 162.866 15.2415C162.866 14.4593 163.009 13.7699 163.294 13.1733C163.582 12.5734 163.983 12.1061 164.497 11.7713C165.014 11.4332 165.617 11.2642 166.307 11.2642C166.704 11.2642 167.097 11.3305 167.485 11.4631C167.873 11.5956 168.226 11.8111 168.544 12.1094C168.862 12.4044 169.116 12.7955 169.305 13.2827C169.493 13.7699 169.588 14.3698 169.588 15.0824V15.5795H163.702V14.5653H168.395C168.395 14.1345 168.309 13.75 168.136 13.4119C167.967 13.0739 167.725 12.8071 167.41 12.6115C167.099 12.416 166.731 12.3182 166.307 12.3182C165.839 12.3182 165.435 12.4342 165.094 12.6662C164.756 12.8949 164.495 13.1932 164.313 13.5611C164.131 13.929 164.04 14.3234 164.04 14.7443V15.4205C164.04 15.9972 164.139 16.486 164.338 16.8871C164.54 17.2848 164.82 17.5881 165.178 17.7969C165.536 18.0024 165.952 18.1051 166.426 18.1051C166.734 18.1051 167.013 18.062 167.261 17.9759C167.513 17.8864 167.73 17.7538 167.912 17.5781C168.095 17.3991 168.236 17.1771 168.335 16.9119L169.469 17.2301C169.349 17.6146 169.149 17.9527 168.867 18.2443C168.585 18.5327 168.237 18.758 167.823 18.9205C167.409 19.0795 166.943 19.1591 166.426 19.1591ZM174.256 19.1591C173.62 19.1591 173.058 18.9983 172.571 18.6768C172.084 18.352 171.702 17.8946 171.427 17.3047C171.152 16.7114 171.015 16.0104 171.015 15.2017C171.015 14.3996 171.152 13.7036 171.427 13.1136C171.702 12.5237 172.085 12.0679 172.576 11.7464C173.066 11.425 173.633 11.2642 174.276 11.2642C174.773 11.2642 175.166 11.3471 175.454 11.5128C175.746 11.6752 175.968 11.8608 176.121 12.0696C176.276 12.2751 176.397 12.4441 176.483 12.5767H176.583V8.81818H177.756V19H176.623V17.8267H176.483C176.397 17.9659 176.275 18.1416 176.116 18.3537C175.956 18.5625 175.729 18.7498 175.434 18.9155C175.14 19.0779 174.747 19.1591 174.256 19.1591ZM174.415 18.1051C174.886 18.1051 175.284 17.9825 175.608 17.7372C175.933 17.4886 176.18 17.1456 176.349 16.7081C176.518 16.2673 176.603 15.7585 176.603 15.1818C176.603 14.6117 176.52 14.1129 176.354 13.6854C176.189 13.2545 175.943 12.9197 175.618 12.6811C175.294 12.4392 174.893 12.3182 174.415 12.3182C173.918 12.3182 173.504 12.4458 173.172 12.701C172.844 12.9529 172.597 13.2959 172.432 13.7301C172.269 14.161 172.188 14.6449 172.188 15.1818C172.188 15.7254 172.271 16.2192 172.437 16.6634C172.606 17.1042 172.854 17.4555 173.182 17.7173C173.514 17.9759 173.925 18.1051 174.415 18.1051ZM187.327 11.3636V12.358H183.369V11.3636H187.327ZM184.523 9.53409H185.696V16.8125C185.696 17.1439 185.744 17.3925 185.84 17.5582C185.939 17.7206 186.065 17.83 186.218 17.8864C186.374 17.9394 186.538 17.9659 186.71 17.9659C186.839 17.9659 186.945 17.9593 187.028 17.946C187.111 17.9295 187.177 17.9162 187.227 17.9062L187.466 18.9602C187.386 18.9901 187.275 19.0199 187.133 19.0497C186.99 19.0829 186.809 19.0994 186.591 19.0994C186.259 19.0994 185.934 19.0282 185.616 18.8857C185.301 18.7431 185.04 18.526 184.831 18.2344C184.625 17.9427 184.523 17.5748 184.523 17.1307V9.53409ZM192.112 19.1591C191.422 19.1591 190.817 18.995 190.297 18.6669C189.78 18.3388 189.376 17.8797 189.084 17.2898C188.796 16.6998 188.651 16.0104 188.651 15.2216C188.651 14.4261 188.796 13.7318 189.084 13.1385C189.376 12.5452 189.78 12.0845 190.297 11.7564C190.817 11.4283 191.422 11.2642 192.112 11.2642C192.801 11.2642 193.404 11.4283 193.921 11.7564C194.442 12.0845 194.846 12.5452 195.134 13.1385C195.426 13.7318 195.572 14.4261 195.572 15.2216C195.572 16.0104 195.426 16.6998 195.134 17.2898C194.846 17.8797 194.442 18.3388 193.921 18.6669C193.404 18.995 192.801 19.1591 192.112 19.1591ZM192.112 18.1051C192.635 18.1051 193.066 17.9709 193.404 17.7024C193.742 17.4339 193.993 17.081 194.155 16.6435C194.317 16.206 194.399 15.732 194.399 15.2216C194.399 14.7112 194.317 14.2356 194.155 13.7947C193.993 13.3539 193.742 12.9976 193.404 12.7259C193.066 12.4541 192.635 12.3182 192.112 12.3182C191.588 12.3182 191.157 12.4541 190.819 12.7259C190.481 12.9976 190.231 13.3539 190.068 13.7947C189.906 14.2356 189.825 14.7112 189.825 15.2216C189.825 15.732 189.906 16.206 190.068 16.6435C190.231 17.081 190.481 17.4339 190.819 17.7024C191.157 17.9709 191.588 18.1051 192.112 18.1051ZM202.056 21.8636C201.857 21.8636 201.68 21.8471 201.524 21.8139C201.368 21.7841 201.261 21.7543 201.201 21.7244L201.499 20.6903C201.784 20.7633 202.036 20.7898 202.255 20.7699C202.474 20.75 202.668 20.6522 202.837 20.4766C203.009 20.3042 203.166 20.0241 203.309 19.6364L203.528 19.0398L200.704 11.3636H201.977L204.085 17.4489H204.164L206.272 11.3636H207.545L204.303 20.1136C204.157 20.508 203.977 20.8345 203.761 21.093C203.546 21.3549 203.296 21.5488 203.011 21.6747C202.729 21.8007 202.411 21.8636 202.056 21.8636ZM211.922 19.1591C211.233 19.1591 210.628 18.995 210.108 18.6669C209.591 18.3388 209.186 17.8797 208.895 17.2898C208.606 16.6998 208.462 16.0104 208.462 15.2216C208.462 14.4261 208.606 13.7318 208.895 13.1385C209.186 12.5452 209.591 12.0845 210.108 11.7564C210.628 11.4283 211.233 11.2642 211.922 11.2642C212.612 11.2642 213.215 11.4283 213.732 11.7564C214.252 12.0845 214.657 12.5452 214.945 13.1385C215.237 13.7318 215.382 14.4261 215.382 15.2216C215.382 16.0104 215.237 16.6998 214.945 17.2898C214.657 17.8797 214.252 18.3388 213.732 18.6669C213.215 18.995 212.612 19.1591 211.922 19.1591ZM211.922 18.1051C212.446 18.1051 212.877 17.9709 213.215 17.7024C213.553 17.4339 213.803 17.081 213.966 16.6435C214.128 16.206 214.209 15.732 214.209 15.2216C214.209 14.7112 214.128 14.2356 213.966 13.7947C213.803 13.3539 213.553 12.9976 213.215 12.7259C212.877 12.4541 212.446 12.3182 211.922 12.3182C211.399 12.3182 210.968 12.4541 210.63 12.7259C210.292 12.9976 210.041 13.3539 209.879 13.7947C209.717 14.2356 209.635 14.7112 209.635 15.2216C209.635 15.732 209.717 16.206 209.879 16.6435C210.041 17.081 210.292 17.4339 210.63 17.7024C210.968 17.9709 211.399 18.1051 211.922 18.1051ZM221.986 15.8778V11.3636H223.159V19H221.986V17.7074H221.906C221.727 18.0952 221.449 18.425 221.071 18.6967C220.693 18.9652 220.216 19.0994 219.639 19.0994C219.162 19.0994 218.738 18.995 218.367 18.7862C217.995 18.5741 217.704 18.2559 217.492 17.8317C217.28 17.4041 217.173 16.8655 217.173 16.2159V11.3636H218.347V16.1364C218.347 16.6932 218.503 17.1373 218.814 17.4688C219.129 17.8002 219.53 17.9659 220.017 17.9659C220.309 17.9659 220.606 17.8913 220.907 17.7422C221.212 17.593 221.467 17.3643 221.673 17.0561C221.882 16.7479 221.986 16.3551 221.986 15.8778Z" fill="white"/>
<path d="M36.3068 28.2727H37.517L39.9375 32.3466H40.0398L42.4602 28.2727H43.6705L40.517 33.4034V37H39.4602V33.4034L36.3068 28.2727ZM46.7195 37.1364C46.0888 37.1364 45.5447 36.9972 45.0874 36.7188C44.6328 36.4375 44.282 36.0455 44.0348 35.5426C43.7905 35.0369 43.6683 34.4489 43.6683 33.7784C43.6683 33.108 43.7905 32.517 44.0348 32.0057C44.282 31.4915 44.6257 31.0909 45.0661 30.804C45.5092 30.5142 46.0263 30.3693 46.6172 30.3693C46.9581 30.3693 47.2947 30.4261 47.6271 30.5398C47.9595 30.6534 48.2621 30.8381 48.5348 31.0938C48.8075 31.3466 49.0249 31.6818 49.1868 32.0994C49.3487 32.517 49.4297 33.0312 49.4297 33.642V34.0682H44.3842V33.1989H48.407C48.407 32.8295 48.3331 32.5 48.1854 32.2102C48.0405 31.9205 47.8331 31.6918 47.5632 31.5241C47.2962 31.3565 46.9808 31.2727 46.6172 31.2727C46.2166 31.2727 45.87 31.3722 45.5774 31.571C45.2876 31.767 45.0646 32.0227 44.9084 32.3381C44.7521 32.6534 44.674 32.9915 44.674 33.3523V33.9318C44.674 34.4261 44.7592 34.8452 44.9297 35.1889C45.103 35.5298 45.343 35.7898 45.6499 35.9688C45.9567 36.1449 46.3132 36.233 46.7195 36.233C46.9837 36.233 47.2223 36.196 47.4354 36.1222C47.6513 36.0455 47.8374 35.9318 47.9936 35.7812C48.1499 35.6278 48.2706 35.4375 48.3558 35.2102L49.3274 35.483C49.2251 35.8125 49.0533 36.1023 48.8118 36.3523C48.5703 36.5994 48.272 36.7926 47.9169 36.9318C47.5618 37.0682 47.1626 37.1364 46.7195 37.1364ZM55.5959 31.9205L54.6925 32.1761C54.6357 32.0256 54.5518 31.8793 54.4411 31.7372C54.3331 31.5923 54.1854 31.473 53.9979 31.3793C53.8104 31.2855 53.5703 31.2386 53.2777 31.2386C52.8771 31.2386 52.5433 31.331 52.2763 31.5156C52.0121 31.6974 51.88 31.929 51.88 32.2102C51.88 32.4602 51.9709 32.6577 52.1527 32.8026C52.3345 32.9474 52.6186 33.0682 53.005 33.1648L53.9766 33.4034C54.5618 33.5455 54.9979 33.7628 55.2848 34.0554C55.5717 34.3452 55.7152 34.7187 55.7152 35.1761C55.7152 35.5511 55.6072 35.8864 55.3913 36.1818C55.1783 36.4773 54.88 36.7102 54.4964 36.8807C54.1129 37.0511 53.6669 37.1364 53.1584 37.1364C52.4908 37.1364 51.9382 36.9915 51.5007 36.7017C51.0632 36.4119 50.7862 35.9886 50.6697 35.4318L51.6243 35.1932C51.7152 35.5455 51.8871 35.8097 52.1399 35.9858C52.3956 36.1619 52.7294 36.25 53.1413 36.25C53.6101 36.25 53.9822 36.1506 54.2578 35.9517C54.5362 35.75 54.6754 35.5085 54.6754 35.2273C54.6754 35 54.5959 34.8097 54.4368 34.6562C54.2777 34.5 54.0334 34.3835 53.7038 34.3068L52.6129 34.0511C52.0135 33.9091 51.5732 33.6889 51.2919 33.3906C51.0135 33.0895 50.8743 32.7131 50.8743 32.2614C50.8743 31.892 50.978 31.5653 51.1854 31.2812C51.3956 30.9972 51.6811 30.7741 52.0419 30.6122C52.4055 30.4503 52.8175 30.3693 53.2777 30.3693C53.9254 30.3693 54.4339 30.5114 54.8033 30.7955C55.1754 31.0795 55.4396 31.4545 55.5959 31.9205ZM60.0756 30.4545V31.3068H56.6836V30.4545H60.0756ZM57.6722 28.8864H58.6779V35.125C58.6779 35.4091 58.7191 35.6222 58.8015 35.7642C58.8867 35.9034 58.9947 35.9972 59.1254 36.0455C59.2589 36.0909 59.3995 36.1136 59.5472 36.1136C59.658 36.1136 59.7489 36.108 59.82 36.0966C59.891 36.0824 59.9478 36.071 59.9904 36.0625L60.195 36.9659C60.1268 36.9915 60.0316 37.017 59.9094 37.0426C59.7873 37.071 59.6325 37.0852 59.445 37.0852C59.1609 37.0852 58.8825 37.0241 58.6097 36.902C58.3398 36.7798 58.1154 36.5938 57.9364 36.3438C57.7603 36.0938 57.6722 35.7784 57.6722 35.3977V28.8864ZM64.2624 37.1364C63.6317 37.1364 63.0877 36.9972 62.6303 36.7188C62.1758 36.4375 61.8249 36.0455 61.5778 35.5426C61.3335 35.0369 61.2113 34.4489 61.2113 33.7784C61.2113 33.108 61.3335 32.517 61.5778 32.0057C61.8249 31.4915 62.1687 31.0909 62.609 30.804C63.0522 30.5142 63.5692 30.3693 64.1602 30.3693C64.5011 30.3693 64.8377 30.4261 65.1701 30.5398C65.5025 30.6534 65.805 30.8381 66.0778 31.0938C66.3505 31.3466 66.5678 31.6818 66.7298 32.0994C66.8917 32.517 66.9727 33.0312 66.9727 33.642V34.0682H61.9272V33.1989H65.9499C65.9499 32.8295 65.8761 32.5 65.7283 32.2102C65.5835 31.9205 65.3761 31.6918 65.1062 31.5241C64.8391 31.3565 64.5238 31.2727 64.1602 31.2727C63.7596 31.2727 63.413 31.3722 63.1204 31.571C62.8306 31.767 62.6076 32.0227 62.4513 32.3381C62.2951 32.6534 62.217 32.9915 62.217 33.3523V33.9318C62.217 34.4261 62.3022 34.8452 62.4727 35.1889C62.646 35.5298 62.886 35.7898 63.1928 35.9688C63.4996 36.1449 63.8562 36.233 64.2624 36.233C64.5266 36.233 64.7653 36.196 64.9783 36.1222C65.1942 36.0455 65.3803 35.9318 65.5366 35.7812C65.6928 35.6278 65.8136 35.4375 65.8988 35.2102L66.8704 35.483C66.7681 35.8125 66.5962 36.1023 66.3548 36.3523C66.1133 36.5994 65.815 36.7926 65.4599 36.9318C65.1048 37.0682 64.7056 37.1364 64.2624 37.1364ZM68.5025 37V30.4545H69.4741V31.4432H69.5423C69.6616 31.1193 69.8775 30.8565 70.19 30.6548C70.5025 30.4531 70.8548 30.3523 71.2468 30.3523C71.3207 30.3523 71.413 30.3537 71.5238 30.3565C71.6346 30.3594 71.7184 30.3636 71.7752 30.3693V31.392C71.7411 31.3835 71.663 31.3707 71.5408 31.3537C71.4215 31.3338 71.2951 31.3239 71.1616 31.3239C70.8434 31.3239 70.5593 31.3906 70.3093 31.5241C70.0621 31.6548 69.8661 31.8366 69.7212 32.0696C69.5792 32.2997 69.5082 32.5625 69.5082 32.858V37H68.5025ZM75.2397 37.1364C74.6942 37.1364 74.2127 36.9986 73.7951 36.723C73.3775 36.4446 73.0508 36.0526 72.815 35.5469C72.5792 35.0384 72.4613 34.4375 72.4613 33.7443C72.4613 33.0568 72.5792 32.4602 72.815 31.9545C73.0508 31.4489 73.3789 31.0582 73.7994 30.7827C74.2198 30.5071 74.7056 30.3693 75.2567 30.3693C75.6829 30.3693 76.0195 30.4403 76.2667 30.5824C76.5167 30.7216 76.707 30.8807 76.8377 31.0597C76.9712 31.2358 77.0749 31.3807 77.1488 31.4943H77.234V28.2727H78.2397V37H77.2681V35.9943H77.1488C77.0749 36.1136 76.9698 36.2642 76.8335 36.446C76.6971 36.625 76.5025 36.7855 76.2496 36.9276C75.9968 37.0668 75.6602 37.1364 75.2397 37.1364ZM75.3761 36.233C75.7795 36.233 76.1204 36.1278 76.3988 35.9176C76.6772 35.7045 76.8888 35.4105 77.0337 35.0355C77.1786 34.6577 77.2511 34.2216 77.2511 33.7273C77.2511 33.2386 77.18 32.8111 77.038 32.4446C76.896 32.0753 76.6857 31.7884 76.4073 31.5838C76.1289 31.3764 75.7852 31.2727 75.3761 31.2727C74.9499 31.2727 74.5948 31.3821 74.3107 31.6009C74.0295 31.8168 73.8178 32.1108 73.6758 32.483C73.5366 32.8523 73.467 33.267 73.467 33.7273C73.467 34.1932 73.538 34.6165 73.68 34.9972C73.8249 35.375 74.038 35.6761 74.3192 35.9006C74.6033 36.1222 74.9556 36.233 75.3761 36.233ZM82.1474 37.1534C81.7326 37.1534 81.3562 37.0753 81.0181 36.919C80.68 36.7599 80.4116 36.5312 80.2127 36.233C80.0138 35.9318 79.9144 35.5682 79.9144 35.142C79.9144 34.767 79.9883 34.4631 80.136 34.2301C80.2837 33.9943 80.4812 33.8097 80.7283 33.6761C80.9755 33.5426 81.2482 33.4432 81.5465 33.3778C81.8477 33.3097 82.1502 33.2557 82.4542 33.2159C82.8519 33.1648 83.1744 33.1264 83.4215 33.1009C83.6715 33.0724 83.8533 33.0256 83.967 32.9602C84.0835 32.8949 84.1417 32.7812 84.1417 32.6193V32.5852C84.1417 32.1648 84.0266 31.8381 83.7965 31.6051C83.5692 31.3722 83.2241 31.2557 82.761 31.2557C82.2809 31.2557 81.9045 31.3608 81.6317 31.571C81.359 31.7812 81.1673 32.0057 81.0565 32.2443L80.1019 31.9034C80.2724 31.5057 80.4996 31.196 80.7837 30.9744C81.0707 30.75 81.3832 30.5937 81.7212 30.5057C82.0621 30.4148 82.3974 30.3693 82.7269 30.3693C82.9371 30.3693 83.1786 30.3949 83.4513 30.446C83.7269 30.4943 83.9925 30.5952 84.2482 30.7486C84.5067 30.902 84.7212 31.1335 84.8917 31.4432C85.0621 31.7528 85.1474 32.1676 85.1474 32.6875V37H84.1417V36.1136H84.0906C84.0224 36.2557 83.9087 36.4077 83.7496 36.5696C83.5906 36.7315 83.3789 36.8693 83.1147 36.983C82.8505 37.0966 82.5281 37.1534 82.1474 37.1534ZM82.3008 36.25C82.6985 36.25 83.0337 36.1719 83.3065 36.0156C83.582 35.8594 83.7894 35.6577 83.9286 35.4105C84.0707 35.1634 84.1417 34.9034 84.1417 34.6307V33.7102C84.0991 33.7614 84.0053 33.8082 83.8604 33.8509C83.7184 33.8906 83.5536 33.9261 83.3661 33.9574C83.1815 33.9858 83.0011 34.0114 82.8249 34.0341C82.6516 34.054 82.511 34.071 82.4031 34.0852C82.1417 34.1193 81.8974 34.1747 81.6701 34.2514C81.4457 34.3253 81.2638 34.4375 81.1246 34.5881C80.9883 34.7358 80.9201 34.9375 80.9201 35.1932C80.9201 35.5426 81.0494 35.8068 81.3079 35.9858C81.5692 36.1619 81.9002 36.25 82.3008 36.25ZM87.3963 39.4545C87.2259 39.4545 87.0739 39.4403 86.9403 39.4119C86.8068 39.3864 86.7145 39.3608 86.6634 39.3352L86.919 38.4489C87.1634 38.5114 87.3793 38.5341 87.5668 38.517C87.7543 38.5 87.9205 38.4162 88.0653 38.2656C88.2131 38.1179 88.348 37.8778 88.4702 37.5455L88.6577 37.0341L86.2372 30.4545H87.3281L89.1349 35.6705H89.2031L91.0099 30.4545H92.1009L89.3224 37.9545C89.1974 38.2926 89.0426 38.5724 88.858 38.794C88.6733 39.0185 88.4588 39.1847 88.2145 39.2926C87.973 39.4006 87.7003 39.4545 87.3963 39.4545ZM99.8544 28.2727V37H98.7976V29.3807H98.7464L96.6158 30.7955V29.7216L98.7976 28.2727H99.8544ZM102.364 37V36.233L105.245 33.0795C105.583 32.7102 105.862 32.3892 106.08 32.1165C106.299 31.8409 106.461 31.5824 106.566 31.3409C106.674 31.0966 106.728 30.8409 106.728 30.5739C106.728 30.267 106.654 30.0014 106.506 29.777C106.362 29.5526 106.163 29.3793 105.91 29.2571C105.657 29.1349 105.373 29.0739 105.058 29.0739C104.722 29.0739 104.43 29.1435 104.18 29.2827C103.933 29.419 103.741 29.6108 103.604 29.858C103.471 30.1051 103.404 30.3949 103.404 30.7273H102.398C102.398 30.2159 102.516 29.767 102.752 29.3807C102.988 28.9943 103.309 28.6932 103.715 28.4773C104.124 28.2614 104.583 28.1534 105.092 28.1534C105.603 28.1534 106.056 28.2614 106.451 28.4773C106.846 28.6932 107.156 28.9844 107.38 29.3509C107.604 29.7173 107.717 30.125 107.717 30.5739C107.717 30.8949 107.658 31.2088 107.542 31.5156C107.428 31.8196 107.229 32.1591 106.945 32.5341C106.664 32.9062 106.273 33.3608 105.773 33.8977L103.813 35.9943V36.0625H107.87V37H102.364ZM110.38 35.8835C110.17 35.8835 109.989 35.8082 109.839 35.6577C109.688 35.5071 109.613 35.3267 109.613 35.1165C109.613 34.9062 109.688 34.7259 109.839 34.5753C109.989 34.4247 110.17 34.3494 110.38 34.3494C110.59 34.3494 110.771 34.4247 110.921 34.5753C111.072 34.7259 111.147 34.9062 111.147 35.1165C111.147 35.2557 111.112 35.3835 111.04 35.5C110.972 35.6165 110.88 35.7102 110.763 35.7812C110.65 35.8494 110.522 35.8835 110.38 35.8835ZM110.38 31.4688C110.17 31.4688 109.989 31.3935 109.839 31.2429C109.688 31.0923 109.613 30.9119 109.613 30.7017C109.613 30.4915 109.688 30.3111 109.839 30.1605C109.989 30.0099 110.17 29.9347 110.38 29.9347C110.59 29.9347 110.771 30.0099 110.921 30.1605C111.072 30.3111 111.147 30.4915 111.147 30.7017C111.147 30.8409 111.112 30.9688 111.04 31.0852C110.972 31.2017 110.88 31.2955 110.763 31.3665C110.65 31.4347 110.522 31.4688 110.38 31.4688ZM115.884 37.1193C115.321 37.1193 114.82 37.0227 114.379 36.8295C113.942 36.6364 113.594 36.3679 113.335 36.0241C113.08 35.6776 112.94 35.2756 112.918 34.8182H113.991C114.014 35.0994 114.111 35.3423 114.281 35.5469C114.452 35.7486 114.675 35.9048 114.95 36.0156C115.226 36.1264 115.531 36.1818 115.866 36.1818C116.241 36.1818 116.574 36.1165 116.864 35.9858C117.153 35.8551 117.381 35.6733 117.545 35.4403C117.71 35.2074 117.793 34.9375 117.793 34.6307C117.793 34.3097 117.713 34.027 117.554 33.7827C117.395 33.5355 117.162 33.3423 116.855 33.2031C116.548 33.0639 116.173 32.9943 115.73 32.9943H115.031V32.0568H115.73C116.077 32.0568 116.381 31.9943 116.642 31.8693C116.906 31.7443 117.112 31.5682 117.26 31.3409C117.411 31.1136 117.486 30.8466 117.486 30.5398C117.486 30.2443 117.42 29.9872 117.29 29.7685C117.159 29.5497 116.974 29.3793 116.736 29.2571C116.5 29.1349 116.222 29.0739 115.901 29.0739C115.599 29.0739 115.315 29.1293 115.048 29.2401C114.784 29.348 114.568 29.5057 114.401 29.7131C114.233 29.9176 114.142 30.1648 114.128 30.4545H113.105C113.122 29.9972 113.26 29.5966 113.518 29.2528C113.777 28.9062 114.115 28.6364 114.533 28.4432C114.953 28.25 115.415 28.1534 115.918 28.1534C116.457 28.1534 116.92 28.2628 117.307 28.4815C117.693 28.6974 117.99 28.983 118.197 29.3381C118.405 29.6932 118.509 30.0767 118.509 30.4886C118.509 30.9801 118.379 31.3991 118.121 31.7457C117.865 32.0923 117.517 32.3324 117.077 32.4659V32.5341C117.628 32.625 118.058 32.8594 118.368 33.2372C118.678 33.6122 118.832 34.0767 118.832 34.6307C118.832 35.1051 118.703 35.5312 118.445 35.9091C118.189 36.2841 117.839 36.5795 117.396 36.7955C116.953 37.0114 116.449 37.1193 115.884 37.1193ZM123.354 28.1534C123.712 28.1562 124.07 28.2244 124.428 28.358C124.786 28.4915 125.112 28.7131 125.408 29.0227C125.703 29.3295 125.94 29.7486 126.119 30.2798C126.298 30.8111 126.388 31.4773 126.388 32.2784C126.388 33.054 126.314 33.7429 126.166 34.3452C126.021 34.9446 125.811 35.4503 125.536 35.8622C125.263 36.2741 124.93 36.5866 124.538 36.7997C124.149 37.0128 123.709 37.1193 123.217 37.1193C122.729 37.1193 122.293 37.0227 121.909 36.8295C121.528 36.6335 121.216 36.3622 120.972 36.0156C120.73 35.6662 120.575 35.2614 120.507 34.8011H121.547C121.641 35.2017 121.827 35.5327 122.105 35.794C122.386 36.0526 122.757 36.1818 123.217 36.1818C123.891 36.1818 124.422 35.8878 124.811 35.2997C125.203 34.7116 125.399 33.8807 125.399 32.8068H125.331C125.172 33.0455 124.983 33.2514 124.764 33.4247C124.545 33.598 124.303 33.7315 124.036 33.8253C123.768 33.919 123.484 33.9659 123.183 33.9659C122.683 33.9659 122.224 33.8423 121.807 33.5952C121.392 33.3452 121.06 33.0028 120.81 32.5682C120.562 32.1307 120.439 31.6307 120.439 31.0682C120.439 30.5341 120.558 30.0455 120.797 29.6023C121.038 29.1562 121.376 28.8011 121.811 28.5369C122.249 28.2727 122.763 28.1449 123.354 28.1534ZM123.354 29.0909C122.996 29.0909 122.673 29.1804 122.386 29.3594C122.102 29.5355 121.876 29.7741 121.709 30.0753C121.544 30.3736 121.462 30.7045 121.462 31.0682C121.462 31.4318 121.541 31.7628 121.7 32.0611C121.862 32.3565 122.082 32.5923 122.361 32.7685C122.642 32.9418 122.962 33.0284 123.32 33.0284C123.589 33.0284 123.841 32.9759 124.074 32.8707C124.307 32.7628 124.51 32.6165 124.683 32.4318C124.859 32.2443 124.997 32.0327 125.097 31.7969C125.196 31.5582 125.246 31.3097 125.246 31.0511C125.246 30.7102 125.163 30.3906 124.999 30.0923C124.837 29.794 124.612 29.5526 124.325 29.3679C124.041 29.1832 123.717 29.0909 123.354 29.0909ZM131.95 37H130.842L134.047 28.2727H135.137L138.342 37H137.234L134.626 29.6534H134.558L131.95 37ZM132.359 33.5909H136.825V34.5284H132.359V33.5909ZM139.701 28.2727H140.963L143.929 35.517H144.031L146.997 28.2727H148.258V37H147.27V30.3693H147.184L144.457 37H143.502L140.775 30.3693H140.69V37H139.701V28.2727Z" fill="white" fill-opacity="0.4"/>
</svg>
