<svg width="240" height="46" viewBox="0 0 240 46" fill="none" xmlns="http://www.w3.org/2000/svg">
<rect x="4" y="4" width="24" height="24" rx="8" fill="#E3F5FF"/>
<rect x="4" y="4" width="24" height="24" rx="8" fill="#E3F5FF"/>
<path fill-rule="evenodd" clip-rule="evenodd" d="M11 14.5C11 14.5 11 13.4831 11.3931 12.5536C11.3931 12.5536 11.7727 11.6562 12.4645 10.9645C12.4645 10.9645 13.1562 10.2727 14.0536 9.89313C14.0536 9.89313 14.9831 9.5 16 9.5C16 9.5 17.0169 9.5 17.9464 9.89313C17.9464 9.89313 18.8438 10.2727 19.5355 10.9645C19.5355 10.9645 20.2273 11.6562 20.6069 12.5536C20.6069 12.5536 21 13.4831 21 14.5V17.5C21 17.5 21 18.5169 20.6069 19.4464C20.6069 19.4464 20.2273 20.3438 19.5355 21.0355C19.5355 21.0355 18.8438 21.7273 17.9464 22.1069C17.9464 22.1069 17.0169 22.5 16 22.5C16 22.5 14.9831 22.5 14.0536 22.1069C14.0536 22.1069 13.1562 21.7273 12.4645 21.0355C12.4645 21.0355 11.7727 20.3438 11.3931 19.4464C11.3931 19.4464 11 18.5169 11 17.5V14.5ZM12 14.5V17.5C12 17.5 12 19.1569 13.1716 20.3284C13.1716 20.3284 14.3431 21.5 16 21.5C16 21.5 17.6569 21.5 18.8284 20.3284C18.8284 20.3284 20 19.1569 20 17.5V14.5C20 14.5 20 12.8431 18.8284 11.6716C18.8284 11.6716 17.6569 10.5 16 10.5C16 10.5 14.3431 10.5 13.1716 11.6716C13.1716 11.6716 12 12.8431 12 14.5Z" fill="#1C1C1C"/>
<path d="M20.5 17H22C22.2761 17 22.5 16.7761 22.5 16.5C22.5 16.2239 22.2761 16 22 16H20.5C20.2239 16 20 16.2239 20 16.5C20 16.7761 20.2239 17 20.5 17Z" fill="#1C1C1C"/>
<path d="M10 17H11.5C11.7761 17 12 16.7761 12 16.5C12 16.2239 11.7761 16 11.5 16H10C9.72386 16 9.5 16.2239 9.5 16.5C9.5 16.7761 9.72386 17 10 17Z" fill="#1C1C1C"/>
<path d="M10 19H11.6125C11.8886 19 12.1125 18.7761 12.1125 18.5C12.1125 18.2239 11.8886 18 11.6125 18H10C9.72386 18 9.5 18.2239 9.5 18.5C9.5 18.7761 9.72386 19 10 19Z" fill="#1C1C1C"/>
<path d="M10 15H22C22.2761 15 22.5 14.7761 22.5 14.5C22.5 14.2239 22.2761 14 22 14H10C9.72386 14 9.5 14.2239 9.5 14.5C9.5 14.7761 9.72386 15 10 15Z" fill="#1C1C1C"/>
<path d="M15.5 16.5V22C15.5 22.2761 15.7239 22.5 16 22.5C16.2761 22.5 16.5 22.2761 16.5 22V16.5C16.5 16.2239 16.2761 16 16 16C15.7239 16 15.5 16.2239 15.5 16.5Z" fill="#1C1C1C"/>
<path d="M20.3875 19H22C22.2762 19 22.5 18.7761 22.5 18.5C22.5 18.2239 22.2762 18 22 18H20.3875C20.1114 18 19.8875 18.2239 19.8875 18.5C19.8875 18.7761 20.1114 19 20.3875 19Z" fill="#1C1C1C"/>
<path d="M11.1494 10.1126L12.6369 11.5251C12.7299 11.6133 12.8531 11.6625 12.9812 11.6625L12.9822 11.6625L12.9942 11.6623C13.1267 11.6589 13.2525 11.603 13.3438 11.5068C13.4321 11.4139 13.4812 11.2906 13.4812 11.1625L13.4812 11.1616L13.4811 11.1496C13.4776 11.017 13.4217 10.8912 13.3255 10.7999L11.838 9.38742C11.7451 9.29919 11.6219 9.25 11.4937 9.25L11.4808 9.25017C11.3483 9.2536 11.2225 9.30954 11.1312 9.40571C11.0429 9.49862 10.9937 9.62187 10.9937 9.75L10.9939 9.76293C10.9973 9.89549 11.0533 10.0213 11.1494 10.1126Z" fill="#1C1C1C"/>
<path d="M20.1495 9.38739L18.6683 10.7936C18.5721 10.8849 18.5161 11.0107 18.5127 11.1433L18.5125 11.1562L18.5126 11.1673C18.5154 11.2916 18.5643 11.4104 18.6499 11.5005C18.7412 11.5967 18.867 11.6526 18.9995 11.6561L19.0125 11.6562L19.0236 11.6561C19.1478 11.6534 19.2666 11.6044 19.3568 11.5189L20.838 10.1126C20.9342 10.0213 20.9902 9.89555 20.9936 9.76298L20.9938 9.75L20.9936 9.73896C20.9909 9.61469 20.942 9.49589 20.8564 9.40575C20.7651 9.30957 20.6393 9.25361 20.5067 9.25017L20.4938 9.25L20.4827 9.25012C20.3584 9.25287 20.2397 9.3018 20.1495 9.38739Z" fill="#1C1C1C"/>
<path d="M36.358 8.81818H37.7699L40.5938 13.571H40.7131L43.5369 8.81818H44.9489L41.2699 14.804V19H40.0369V14.804L36.358 8.81818ZM48.4066 19.1591C47.7172 19.1591 47.1123 18.995 46.592 18.6669C46.0749 18.3388 45.6706 17.8797 45.3789 17.2898C45.0906 16.6998 44.9464 16.0104 44.9464 15.2216C44.9464 14.4261 45.0906 13.7318 45.3789 13.1385C45.6706 12.5452 46.0749 12.0845 46.592 11.7564C47.1123 11.4283 47.7172 11.2642 48.4066 11.2642C49.096 11.2642 49.6992 11.4283 50.2163 11.7564C50.7366 12.0845 51.141 12.5452 51.4293 13.1385C51.721 13.7318 51.8668 14.4261 51.8668 15.2216C51.8668 16.0104 51.721 16.6998 51.4293 17.2898C51.141 17.8797 50.7366 18.3388 50.2163 18.6669C49.6992 18.995 49.096 19.1591 48.4066 19.1591ZM48.4066 18.1051C48.9303 18.1051 49.3612 17.9709 49.6992 17.7024C50.0373 17.4339 50.2875 17.081 50.4499 16.6435C50.6123 16.206 50.6935 15.732 50.6935 15.2216C50.6935 14.7112 50.6123 14.2356 50.4499 13.7947C50.2875 13.3539 50.0373 12.9976 49.6992 12.7259C49.3612 12.4541 48.9303 12.3182 48.4066 12.3182C47.8829 12.3182 47.4521 12.4541 47.114 12.7259C46.7759 12.9976 46.5257 13.3539 46.3633 13.7947C46.2009 14.2356 46.1197 14.7112 46.1197 15.2216C46.1197 15.732 46.2009 16.206 46.3633 16.6435C46.5257 17.081 46.7759 17.4339 47.114 17.7024C47.4521 17.9709 47.8829 18.1051 48.4066 18.1051ZM58.4703 15.8778V11.3636H59.6436V19H58.4703V17.7074H58.3908C58.2118 18.0952 57.9334 18.425 57.5556 18.6967C57.1777 18.9652 56.7005 19.0994 56.1238 19.0994C55.6465 19.0994 55.2222 18.995 54.851 18.7862C54.4798 18.5741 54.1882 18.2559 53.976 17.8317C53.7639 17.4041 53.6578 16.8655 53.6578 16.2159V11.3636H54.8311V16.1364C54.8311 16.6932 54.9869 17.1373 55.2985 17.4688C55.6133 17.8002 56.0144 17.9659 56.5016 17.9659C56.7933 17.9659 57.0899 17.8913 57.3915 17.7422C57.6964 17.593 57.9516 17.3643 58.1571 17.0561C58.3659 16.7479 58.4703 16.3551 58.4703 15.8778ZM66.9034 14.4062V19H65.7301V8.81818H66.9034V12.5568H67.0028C67.1818 12.1624 67.4503 11.8492 67.8082 11.6172C68.1695 11.3819 68.6501 11.2642 69.25 11.2642C69.7704 11.2642 70.2261 11.3686 70.6172 11.5774C71.0083 11.7829 71.3116 12.0994 71.527 12.527C71.7457 12.9512 71.8551 13.4915 71.8551 14.1477V19H70.6818V14.2273C70.6818 13.6207 70.5244 13.1518 70.2095 12.8203C69.898 12.4856 69.4654 12.3182 68.9119 12.3182C68.5275 12.3182 68.1828 12.3994 67.8778 12.5618C67.5762 12.7242 67.3376 12.9612 67.1619 13.2727C66.9896 13.5843 66.9034 13.9621 66.9034 14.4062ZM76.2488 19.179C75.7649 19.179 75.3257 19.0878 74.9313 18.9055C74.5369 18.7199 74.2237 18.4531 73.9917 18.1051C73.7596 17.7538 73.6436 17.3295 73.6436 16.8324C73.6436 16.3949 73.7298 16.0402 73.9022 15.7685C74.0745 15.4934 74.3049 15.2779 74.5932 15.1222C74.8816 14.9664 75.1998 14.8504 75.5478 14.7741C75.8991 14.6946 76.2521 14.6316 76.6067 14.5852C77.0707 14.5256 77.4469 14.4808 77.7353 14.451C78.0269 14.4179 78.2391 14.3632 78.3716 14.2869C78.5075 14.2107 78.5755 14.0781 78.5755 13.8892V13.8494C78.5755 13.3589 78.4412 12.9777 78.1728 12.706C77.9076 12.4342 77.5049 12.2983 76.9647 12.2983C76.4045 12.2983 75.9654 12.4209 75.6472 12.6662C75.329 12.9115 75.1053 13.1733 74.976 13.4517L73.8624 13.054C74.0613 12.59 74.3264 12.2287 74.6578 11.9702C74.9926 11.7083 75.3572 11.526 75.7516 11.4233C76.1493 11.3172 76.5404 11.2642 76.9249 11.2642C77.1702 11.2642 77.4519 11.294 77.7701 11.3537C78.0916 11.41 78.4015 11.5277 78.6998 11.7067C79.0014 11.8857 79.2516 12.1558 79.4505 12.517C79.6493 12.8783 79.7488 13.3622 79.7488 13.9688V19H78.5755V17.9659H78.5158C78.4363 18.1316 78.3037 18.3089 78.1181 18.4979C77.9325 18.6868 77.6855 18.8475 77.3773 18.9801C77.0691 19.1127 76.6929 19.179 76.2488 19.179ZM76.4277 18.125C76.8917 18.125 77.2828 18.0339 77.601 17.8516C77.9225 17.6693 78.1645 17.4339 78.3269 17.1456C78.4926 16.8572 78.5755 16.554 78.5755 16.2358V15.1619C78.5257 15.2216 78.4164 15.2763 78.2473 15.326C78.0816 15.3724 77.8894 15.4138 77.6706 15.4503C77.4552 15.4834 77.2447 15.5133 77.0392 15.5398C76.8371 15.563 76.673 15.5829 76.5471 15.5994C76.2421 15.6392 75.9571 15.7038 75.6919 15.7933C75.4301 15.8795 75.218 16.0104 75.0556 16.1861C74.8965 16.3584 74.8169 16.5937 74.8169 16.892C74.8169 17.2997 74.9677 17.608 75.2694 17.8168C75.5743 18.0223 75.9604 18.125 76.4277 18.125ZM87.8612 11.3636L85.0373 19H83.8441L81.0202 11.3636H82.293L84.4009 17.4489H84.4805L86.5884 11.3636H87.8612ZM92.3381 19.1591C91.6023 19.1591 90.9676 18.9967 90.4339 18.6719C89.9036 18.3438 89.4943 17.8864 89.206 17.2997C88.9209 16.7098 88.7784 16.0237 88.7784 15.2415C88.7784 14.4593 88.9209 13.7699 89.206 13.1733C89.4943 12.5734 89.8954 12.1061 90.4091 11.7713C90.9261 11.4332 91.5294 11.2642 92.2188 11.2642C92.6165 11.2642 93.0092 11.3305 93.397 11.4631C93.7848 11.5956 94.1378 11.8111 94.456 12.1094C94.7741 12.4044 95.0277 12.7955 95.2166 13.2827C95.4055 13.7699 95.5 14.3698 95.5 15.0824V15.5795H89.6136V14.5653H94.3068C94.3068 14.1345 94.2206 13.75 94.0483 13.4119C93.8793 13.0739 93.6373 12.8071 93.3224 12.6115C93.0109 12.416 92.643 12.3182 92.2188 12.3182C91.7514 12.3182 91.3471 12.4342 91.0057 12.6662C90.6676 12.8949 90.4074 13.1932 90.2251 13.5611C90.0429 13.929 89.9517 14.3234 89.9517 14.7443V15.4205C89.9517 15.9972 90.0511 16.486 90.25 16.8871C90.4522 17.2848 90.7322 17.5881 91.0902 17.7969C91.4482 18.0024 91.8641 18.1051 92.3381 18.1051C92.6463 18.1051 92.9247 18.062 93.1733 17.9759C93.4252 17.8864 93.6423 17.7538 93.8246 17.5781C94.0069 17.3991 94.1477 17.1771 94.2472 16.9119L95.3807 17.2301C95.2614 17.6146 95.0608 17.9527 94.7791 18.2443C94.4974 18.5327 94.1494 18.758 93.7351 18.9205C93.3208 19.0795 92.8551 19.1591 92.3381 19.1591ZM103.469 19.179C102.986 19.179 102.546 19.0878 102.152 18.9055C101.758 18.7199 101.444 18.4531 101.212 18.1051C100.98 17.7538 100.864 17.3295 100.864 16.8324C100.864 16.3949 100.951 16.0402 101.123 15.7685C101.295 15.4934 101.526 15.2779 101.814 15.1222C102.102 14.9664 102.42 14.8504 102.768 14.7741C103.12 14.6946 103.473 14.6316 103.827 14.5852C104.291 14.5256 104.668 14.4808 104.956 14.451C105.248 14.4179 105.46 14.3632 105.592 14.2869C105.728 14.2107 105.796 14.0781 105.796 13.8892V13.8494C105.796 13.3589 105.662 12.9777 105.393 12.706C105.128 12.4342 104.726 12.2983 104.185 12.2983C103.625 12.2983 103.186 12.4209 102.868 12.6662C102.55 12.9115 102.326 13.1733 102.197 13.4517L101.083 13.054C101.282 12.59 101.547 12.2287 101.879 11.9702C102.213 11.7083 102.578 11.526 102.972 11.4233C103.37 11.3172 103.761 11.2642 104.146 11.2642C104.391 11.2642 104.673 11.294 104.991 11.3537C105.312 11.41 105.622 11.5277 105.92 11.7067C106.222 11.8857 106.472 12.1558 106.671 12.517C106.87 12.8783 106.969 13.3622 106.969 13.9688V19H105.796V17.9659H105.737C105.657 18.1316 105.524 18.3089 105.339 18.4979C105.153 18.6868 104.906 18.8475 104.598 18.9801C104.29 19.1127 103.914 19.179 103.469 19.179ZM103.648 18.125C104.112 18.125 104.504 18.0339 104.822 17.8516C105.143 17.6693 105.385 17.4339 105.548 17.1456C105.713 16.8572 105.796 16.554 105.796 16.2358V15.1619C105.746 15.2216 105.637 15.2763 105.468 15.326C105.302 15.3724 105.11 15.4138 104.891 15.4503C104.676 15.4834 104.465 15.5133 104.26 15.5398C104.058 15.563 103.894 15.5829 103.768 15.5994C103.463 15.6392 103.178 15.7038 102.913 15.7933C102.651 15.8795 102.439 16.0104 102.276 16.1861C102.117 16.3584 102.038 16.5937 102.038 16.892C102.038 17.2997 102.188 17.608 102.49 17.8168C102.795 18.0223 103.181 18.125 103.648 18.125ZM113.208 19V8.81818H114.381V12.5767H114.48C114.566 12.4441 114.686 12.2751 114.838 12.0696C114.994 11.8608 115.216 11.6752 115.504 11.5128C115.796 11.3471 116.191 11.2642 116.688 11.2642C117.331 11.2642 117.897 11.425 118.388 11.7464C118.878 12.0679 119.261 12.5237 119.536 13.1136C119.811 13.7036 119.949 14.3996 119.949 15.2017C119.949 16.0104 119.811 16.7114 119.536 17.3047C119.261 17.8946 118.88 18.352 118.393 18.6768C117.906 18.9983 117.344 19.1591 116.708 19.1591C116.217 19.1591 115.824 19.0779 115.529 18.9155C115.234 18.7498 115.007 18.5625 114.848 18.3537C114.689 18.1416 114.566 17.9659 114.48 17.8267H114.341V19H113.208ZM114.361 15.1818C114.361 15.7585 114.445 16.2673 114.615 16.7081C114.784 17.1456 115.03 17.4886 115.355 17.7372C115.68 17.9825 116.078 18.1051 116.548 18.1051C117.039 18.1051 117.448 17.9759 117.776 17.7173C118.108 17.4555 118.356 17.1042 118.522 16.6634C118.691 16.2192 118.776 15.7254 118.776 15.1818C118.776 14.6449 118.693 14.161 118.527 13.7301C118.365 13.2959 118.118 12.9529 117.786 12.701C117.458 12.4458 117.046 12.3182 116.548 12.3182C116.071 12.3182 115.67 12.4392 115.345 12.6811C115.021 12.9197 114.775 13.2545 114.61 13.6854C114.444 14.1129 114.361 14.6117 114.361 15.1818ZM126.556 15.8778V11.3636H127.73V19H126.556V17.7074H126.477C126.298 18.0952 126.019 18.425 125.642 18.6967C125.264 18.9652 124.786 19.0994 124.21 19.0994C123.732 19.0994 123.308 18.995 122.937 18.7862C122.566 18.5741 122.274 18.2559 122.062 17.8317C121.85 17.4041 121.744 16.8655 121.744 16.2159V11.3636H122.917V16.1364C122.917 16.6932 123.073 17.1373 123.384 17.4688C123.699 17.8002 124.1 17.9659 124.588 17.9659C124.879 17.9659 125.176 17.8913 125.477 17.7422C125.782 17.593 126.038 17.3643 126.243 17.0561C126.452 16.7479 126.556 16.3551 126.556 15.8778ZM132.961 22.0227C132.394 22.0227 131.907 21.9498 131.499 21.804C131.092 21.6615 130.752 21.4725 130.48 21.2372C130.212 21.0052 129.998 20.7566 129.839 20.4915L130.773 19.8352C130.879 19.9744 131.014 20.1335 131.176 20.3125C131.339 20.4948 131.561 20.6522 131.842 20.7848C132.127 20.9207 132.5 20.9886 132.961 20.9886C133.577 20.9886 134.086 20.8395 134.487 20.5412C134.888 20.2429 135.089 19.7756 135.089 19.1392V17.5881H134.989C134.903 17.7273 134.781 17.8996 134.621 18.1051C134.466 18.3073 134.24 18.4879 133.945 18.647C133.654 18.8028 133.259 18.8807 132.762 18.8807C132.146 18.8807 131.592 18.7348 131.102 18.4432C130.614 18.1515 130.228 17.7273 129.943 17.1705C129.661 16.6136 129.521 15.9375 129.521 15.142C129.521 14.3598 129.658 13.6787 129.933 13.0987C130.208 12.5154 130.591 12.0646 131.082 11.7464C131.572 11.425 132.139 11.2642 132.782 11.2642C133.279 11.2642 133.674 11.3471 133.965 11.5128C134.26 11.6752 134.486 11.8608 134.641 12.0696C134.8 12.2751 134.923 12.4441 135.009 12.5767H135.129V11.3636H136.262V19.2188C136.262 19.875 136.113 20.4086 135.815 20.8196C135.52 21.2339 135.122 21.5372 134.621 21.7294C134.124 21.925 133.571 22.0227 132.961 22.0227ZM132.921 17.8267C133.392 17.8267 133.79 17.719 134.114 17.5036C134.439 17.2881 134.686 16.9782 134.855 16.5739C135.024 16.1695 135.109 15.6856 135.109 15.1222C135.109 14.572 135.026 14.0864 134.86 13.6655C134.694 13.2446 134.449 12.9148 134.124 12.6761C133.799 12.4375 133.398 12.3182 132.921 12.3182C132.424 12.3182 132.01 12.4441 131.678 12.696C131.35 12.9479 131.103 13.286 130.938 13.7102C130.775 14.1345 130.694 14.6051 130.694 15.1222C130.694 15.6525 130.777 16.1214 130.942 16.5291C131.112 16.9335 131.36 17.2517 131.688 17.4837C132.02 17.7124 132.431 17.8267 132.921 17.8267ZM145.668 11.3636V12.358H141.711V11.3636H145.668ZM142.864 9.53409H144.038V16.8125C144.038 17.1439 144.086 17.3925 144.182 17.5582C144.281 17.7206 144.407 17.83 144.56 17.8864C144.715 17.9394 144.879 17.9659 145.052 17.9659C145.181 17.9659 145.287 17.9593 145.37 17.946C145.453 17.9295 145.519 17.9162 145.569 17.9062L145.808 18.9602C145.728 18.9901 145.617 19.0199 145.474 19.0497C145.332 19.0829 145.151 19.0994 144.933 19.0994C144.601 19.0994 144.276 19.0282 143.958 18.8857C143.643 18.7431 143.381 18.526 143.173 18.2344C142.967 17.9427 142.864 17.5748 142.864 17.1307V9.53409ZM148.771 14.4062V19H147.597V8.81818H148.771V12.5568H148.87C149.049 12.1624 149.317 11.8492 149.675 11.6172C150.037 11.3819 150.517 11.2642 151.117 11.2642C151.638 11.2642 152.093 11.3686 152.484 11.5774C152.875 11.7829 153.179 12.0994 153.394 12.527C153.613 12.9512 153.722 13.4915 153.722 14.1477V19H152.549V14.2273C152.549 13.6207 152.392 13.1518 152.077 12.8203C151.765 12.4856 151.333 12.3182 150.779 12.3182C150.395 12.3182 150.05 12.3994 149.745 12.5618C149.443 12.7242 149.205 12.9612 149.029 13.2727C148.857 13.5843 148.771 13.9621 148.771 14.4062ZM158.116 19.179C157.632 19.179 157.193 19.0878 156.798 18.9055C156.404 18.7199 156.091 18.4531 155.859 18.1051C155.627 17.7538 155.511 17.3295 155.511 16.8324C155.511 16.3949 155.597 16.0402 155.769 15.7685C155.942 15.4934 156.172 15.2779 156.46 15.1222C156.749 14.9664 157.067 14.8504 157.415 14.7741C157.766 14.6946 158.119 14.6316 158.474 14.5852C158.938 14.5256 159.314 14.4808 159.602 14.451C159.894 14.4179 160.106 14.3632 160.239 14.2869C160.375 14.2107 160.443 14.0781 160.443 13.8892V13.8494C160.443 13.3589 160.308 12.9777 160.04 12.706C159.775 12.4342 159.372 12.2983 158.832 12.2983C158.272 12.2983 157.833 12.4209 157.514 12.6662C157.196 12.9115 156.972 13.1733 156.843 13.4517L155.73 13.054C155.928 12.59 156.194 12.2287 156.525 11.9702C156.86 11.7083 157.224 11.526 157.619 11.4233C158.017 11.3172 158.408 11.2642 158.792 11.2642C159.037 11.2642 159.319 11.294 159.637 11.3537C159.959 11.41 160.269 11.5277 160.567 11.7067C160.869 11.8857 161.119 12.1558 161.318 12.517C161.517 12.8783 161.616 13.3622 161.616 13.9688V19H160.443V17.9659H160.383C160.303 18.1316 160.171 18.3089 159.985 18.4979C159.8 18.6868 159.553 18.8475 159.244 18.9801C158.936 19.1127 158.56 19.179 158.116 19.179ZM158.295 18.125C158.759 18.125 159.15 18.0339 159.468 17.8516C159.79 17.6693 160.032 17.4339 160.194 17.1456C160.36 16.8572 160.443 16.554 160.443 16.2358V15.1619C160.393 15.2216 160.284 15.2763 160.115 15.326C159.949 15.3724 159.757 15.4138 159.538 15.4503C159.322 15.4834 159.112 15.5133 158.906 15.5398C158.704 15.563 158.54 15.5829 158.414 15.5994C158.109 15.6392 157.824 15.7038 157.559 15.7933C157.297 15.8795 157.085 16.0104 156.923 16.1861C156.764 16.3584 156.684 16.5937 156.684 16.892C156.684 17.2997 156.835 17.608 157.137 17.8168C157.441 18.0223 157.828 18.125 158.295 18.125ZM167.078 11.3636V12.358H163.121V11.3636H167.078ZM164.275 9.53409H165.448V16.8125C165.448 17.1439 165.496 17.3925 165.592 17.5582C165.691 17.7206 165.817 17.83 165.97 17.8864C166.126 17.9394 166.29 17.9659 166.462 17.9659C166.591 17.9659 166.697 17.9593 166.78 17.946C166.863 17.9295 166.929 17.9162 166.979 17.9062L167.218 18.9602C167.138 18.9901 167.027 19.0199 166.885 19.0497C166.742 19.0829 166.561 19.0994 166.343 19.0994C166.011 19.0994 165.686 19.0282 165.368 18.8857C165.053 18.7431 164.792 18.526 164.583 18.2344C164.377 17.9427 164.275 17.5748 164.275 17.1307V9.53409ZM173.954 14.4062V19H172.781V11.3636H173.914V12.5568H174.014C174.193 12.169 174.465 11.8575 174.829 11.6222C175.194 11.3835 175.664 11.2642 176.241 11.2642C176.758 11.2642 177.211 11.3703 177.598 11.5824C177.986 11.7912 178.288 12.1094 178.503 12.5369C178.719 12.9612 178.826 13.4981 178.826 14.1477V19H177.653V14.2273C177.653 13.6274 177.497 13.16 177.186 12.8253C176.874 12.4872 176.447 12.3182 175.903 12.3182C175.529 12.3182 175.194 12.3994 174.899 12.5618C174.607 12.7242 174.377 12.9612 174.208 13.2727C174.039 13.5843 173.954 13.9621 173.954 14.4062ZM184.172 19.1591C183.436 19.1591 182.802 18.9967 182.268 18.6719C181.738 18.3438 181.328 17.8864 181.04 17.2997C180.755 16.7098 180.612 16.0237 180.612 15.2415C180.612 14.4593 180.755 13.7699 181.04 13.1733C181.328 12.5734 181.729 12.1061 182.243 11.7713C182.76 11.4332 183.363 11.2642 184.053 11.2642C184.45 11.2642 184.843 11.3305 185.231 11.4631C185.619 11.5956 185.972 11.8111 186.29 12.1094C186.608 12.4044 186.862 12.7955 187.051 13.2827C187.24 13.7699 187.334 14.3698 187.334 15.0824V15.5795H181.448V14.5653H186.141C186.141 14.1345 186.055 13.75 185.882 13.4119C185.713 13.0739 185.471 12.8071 185.156 12.6115C184.845 12.416 184.477 12.3182 184.053 12.3182C183.585 12.3182 183.181 12.4342 182.84 12.6662C182.502 12.8949 182.241 13.1932 182.059 13.5611C181.877 13.929 181.786 14.3234 181.786 14.7443V15.4205C181.786 15.9972 181.885 16.486 182.084 16.8871C182.286 17.2848 182.566 17.5881 182.924 17.7969C183.282 18.0024 183.698 18.1051 184.172 18.1051C184.48 18.1051 184.759 18.062 185.007 17.9759C185.259 17.8864 185.476 17.7538 185.659 17.5781C185.841 17.3991 185.982 17.1771 186.081 16.9119L187.215 17.2301C187.095 17.6146 186.895 17.9527 186.613 18.2443C186.331 18.5327 185.983 18.758 185.569 18.9205C185.155 19.0795 184.689 19.1591 184.172 19.1591ZM192.32 19.1591C191.585 19.1591 190.95 18.9967 190.416 18.6719C189.886 18.3438 189.477 17.8864 189.188 17.2997C188.903 16.7098 188.761 16.0237 188.761 15.2415C188.761 14.4593 188.903 13.7699 189.188 13.1733C189.477 12.5734 189.878 12.1061 190.392 11.7713C190.909 11.4332 191.512 11.2642 192.201 11.2642C192.599 11.2642 192.992 11.3305 193.379 11.4631C193.767 11.5956 194.12 11.8111 194.438 12.1094C194.757 12.4044 195.01 12.7955 195.199 13.2827C195.388 13.7699 195.482 14.3698 195.482 15.0824V15.5795H189.596V14.5653H194.289C194.289 14.1345 194.203 13.75 194.031 13.4119C193.862 13.0739 193.62 12.8071 193.305 12.6115C192.993 12.416 192.625 12.3182 192.201 12.3182C191.734 12.3182 191.329 12.4342 190.988 12.6662C190.65 12.8949 190.39 13.1932 190.208 13.5611C190.025 13.929 189.934 14.3234 189.934 14.7443V15.4205C189.934 15.9972 190.034 16.486 190.232 16.8871C190.435 17.2848 190.715 17.5881 191.073 17.7969C191.431 18.0024 191.847 18.1051 192.32 18.1051C192.629 18.1051 192.907 18.062 193.156 17.9759C193.408 17.8864 193.625 17.7538 193.807 17.5781C193.989 17.3991 194.13 17.1771 194.23 16.9119L195.363 17.2301C195.244 17.6146 195.043 17.9527 194.762 18.2443C194.48 18.5327 194.132 18.758 193.718 18.9205C193.303 19.0795 192.838 19.1591 192.32 19.1591ZM200.151 19.1591C199.514 19.1591 198.953 18.9983 198.465 18.6768C197.978 18.352 197.597 17.8946 197.322 17.3047C197.047 16.7114 196.909 16.0104 196.909 15.2017C196.909 14.3996 197.047 13.7036 197.322 13.1136C197.597 12.5237 197.98 12.0679 198.47 11.7464C198.961 11.425 199.528 11.2642 200.171 11.2642C200.668 11.2642 201.061 11.3471 201.349 11.5128C201.641 11.6752 201.863 11.8608 202.015 12.0696C202.171 12.2751 202.292 12.4441 202.378 12.5767H202.477V8.81818H203.651V19H202.517V17.8267H202.378C202.292 17.9659 202.169 18.1416 202.01 18.3537C201.851 18.5625 201.624 18.7498 201.329 18.9155C201.034 19.0779 200.641 19.1591 200.151 19.1591ZM200.31 18.1051C200.78 18.1051 201.178 17.9825 201.503 17.7372C201.828 17.4886 202.075 17.1456 202.244 16.7081C202.413 16.2673 202.497 15.7585 202.497 15.1818C202.497 14.6117 202.414 14.1129 202.249 13.6854C202.083 13.2545 201.838 12.9197 201.513 12.6811C201.188 12.4392 200.787 12.3182 200.31 12.3182C199.813 12.3182 199.398 12.4458 199.067 12.701C198.739 12.9529 198.492 13.2959 198.326 13.7301C198.164 14.161 198.083 14.6449 198.083 15.1818C198.083 15.7254 198.165 16.2192 198.331 16.6634C198.5 17.1042 198.749 17.4555 199.077 17.7173C199.408 17.9759 199.819 18.1051 200.31 18.1051ZM211.372 13.0739L210.318 13.3722C210.251 13.1965 210.154 13.0258 210.024 12.8601C209.898 12.6911 209.726 12.5518 209.507 12.4425C209.289 12.3331 209.008 12.2784 208.667 12.2784C208.2 12.2784 207.81 12.3861 207.499 12.6016C207.191 12.8137 207.036 13.0838 207.036 13.4119C207.036 13.7036 207.142 13.9339 207.355 14.103C207.567 14.272 207.898 14.4129 208.349 14.5256L209.482 14.804C210.165 14.9697 210.674 15.2232 211.009 15.5646C211.343 15.9027 211.511 16.3385 211.511 16.8722C211.511 17.3097 211.385 17.7008 211.133 18.0455C210.884 18.3902 210.536 18.6619 210.089 18.8608C209.642 19.0597 209.121 19.1591 208.528 19.1591C207.749 19.1591 207.104 18.9901 206.594 18.652C206.084 18.3139 205.76 17.8201 205.624 17.1705L206.738 16.892C206.844 17.303 207.045 17.6113 207.34 17.8168C207.638 18.0223 208.027 18.125 208.508 18.125C209.055 18.125 209.489 18.009 209.811 17.777C210.135 17.5417 210.298 17.2599 210.298 16.9318C210.298 16.6667 210.205 16.4446 210.019 16.2656C209.834 16.0833 209.549 15.9474 209.164 15.858L207.892 15.5597C207.192 15.3939 206.678 15.1371 206.35 14.7891C206.026 14.4377 205.863 13.9986 205.863 13.4716C205.863 13.0407 205.984 12.6596 206.226 12.3281C206.471 11.9967 206.804 11.7365 207.225 11.5476C207.65 11.3587 208.13 11.2642 208.667 11.2642C209.423 11.2642 210.016 11.4299 210.447 11.7614C210.881 12.0928 211.189 12.5303 211.372 13.0739ZM220.536 11.3636V12.358H216.578V11.3636H220.536ZM217.732 9.53409H218.905V16.8125C218.905 17.1439 218.953 17.3925 219.049 17.5582C219.148 17.7206 219.274 17.83 219.427 17.8864C219.583 17.9394 219.747 17.9659 219.919 17.9659C220.048 17.9659 220.154 17.9593 220.237 17.946C220.32 17.9295 220.386 17.9162 220.436 17.9062L220.675 18.9602C220.595 18.9901 220.484 19.0199 220.342 19.0497C220.199 19.0829 220.018 19.0994 219.8 19.0994C219.468 19.0994 219.143 19.0282 218.825 18.8857C218.51 18.7431 218.249 18.526 218.04 18.2344C217.834 17.9427 217.732 17.5748 217.732 17.1307V9.53409ZM223.074 19.0795C222.828 19.0795 222.618 18.9917 222.442 18.8161C222.266 18.6404 222.179 18.4299 222.179 18.1847C222.179 17.9394 222.266 17.7289 222.442 17.5533C222.618 17.3776 222.828 17.2898 223.074 17.2898C223.319 17.2898 223.529 17.3776 223.705 17.5533C223.881 17.7289 223.968 17.9394 223.968 18.1847C223.968 18.3471 223.927 18.4962 223.844 18.6321C223.765 18.768 223.657 18.8774 223.521 18.9602C223.388 19.0398 223.239 19.0795 223.074 19.0795ZM226.892 19.0795C226.646 19.0795 226.436 18.9917 226.26 18.8161C226.085 18.6404 225.997 18.4299 225.997 18.1847C225.997 17.9394 226.085 17.7289 226.26 17.5533C226.436 17.3776 226.646 17.2898 226.892 17.2898C227.137 17.2898 227.347 17.3776 227.523 17.5533C227.699 17.7289 227.787 17.9394 227.787 18.1847C227.787 18.3471 227.745 18.4962 227.662 18.6321C227.583 18.768 227.475 18.8774 227.339 18.9602C227.207 19.0398 227.057 19.0795 226.892 19.0795ZM230.71 19.0795C230.465 19.0795 230.254 18.9917 230.078 18.8161C229.903 18.6404 229.815 18.4299 229.815 18.1847C229.815 17.9394 229.903 17.7289 230.078 17.5533C230.254 17.3776 230.465 17.2898 230.71 17.2898C230.955 17.2898 231.166 17.3776 231.341 17.5533C231.517 17.7289 231.605 17.9394 231.605 18.1847C231.605 18.3471 231.563 18.4962 231.48 18.6321C231.401 18.768 231.293 18.8774 231.157 18.9602C231.025 19.0398 230.876 19.0795 230.71 19.0795Z" fill="white"/>
<path d="M39.75 37.1193C39.108 37.1193 38.5611 36.9446 38.1094 36.5952C37.6577 36.2429 37.3125 35.733 37.0739 35.0653C36.8352 34.3949 36.7159 33.5852 36.7159 32.6364C36.7159 31.6932 36.8352 30.8878 37.0739 30.2202C37.3153 29.5497 37.6619 29.0384 38.1136 28.6861C38.5682 28.331 39.1136 28.1534 39.75 28.1534C40.3864 28.1534 40.9304 28.331 41.3821 28.6861C41.8366 29.0384 42.1832 29.5497 42.4219 30.2202C42.6634 30.8878 42.7841 31.6932 42.7841 32.6364C42.7841 33.5852 42.6648 34.3949 42.4261 35.0653C42.1875 35.733 41.8423 36.2429 41.3906 36.5952C40.9389 36.9446 40.392 37.1193 39.75 37.1193ZM39.75 36.1818C40.3864 36.1818 40.8807 35.875 41.233 35.2614C41.5852 34.6477 41.7614 33.7727 41.7614 32.6364C41.7614 31.8807 41.6804 31.2372 41.5185 30.706C41.3594 30.1747 41.1293 29.7699 40.8281 29.4915C40.5298 29.2131 40.1705 29.0739 39.75 29.0739C39.1193 29.0739 38.6264 29.3849 38.2713 30.0071C37.9162 30.6264 37.7386 31.5028 37.7386 32.6364C37.7386 33.392 37.8182 34.0341 37.9773 34.5625C38.1364 35.0909 38.3651 35.4929 38.6634 35.7685C38.9645 36.044 39.3267 36.1818 39.75 36.1818ZM45.1534 35.8835C44.9432 35.8835 44.7628 35.8082 44.6122 35.6577C44.4616 35.5071 44.3864 35.3267 44.3864 35.1165C44.3864 34.9062 44.4616 34.7259 44.6122 34.5753C44.7628 34.4247 44.9432 34.3494 45.1534 34.3494C45.3636 34.3494 45.544 34.4247 45.6946 34.5753C45.8452 34.7259 45.9205 34.9062 45.9205 35.1165C45.9205 35.2557 45.8849 35.3835 45.8139 35.5C45.7457 35.6165 45.6534 35.7102 45.5369 35.7812C45.4233 35.8494 45.2955 35.8835 45.1534 35.8835ZM45.1534 31.4688C44.9432 31.4688 44.7628 31.3935 44.6122 31.2429C44.4616 31.0923 44.3864 30.9119 44.3864 30.7017C44.3864 30.4915 44.4616 30.3111 44.6122 30.1605C44.7628 30.0099 44.9432 29.9347 45.1534 29.9347C45.3636 29.9347 45.544 30.0099 45.6946 30.1605C45.8452 30.3111 45.9205 30.4915 45.9205 30.7017C45.9205 30.8409 45.8849 30.9688 45.8139 31.0852C45.7457 31.2017 45.6534 31.2955 45.5369 31.3665C45.4233 31.4347 45.2955 31.4688 45.1534 31.4688ZM50.657 37.1193C50.0945 37.1193 49.593 37.0227 49.1527 36.8295C48.7152 36.6364 48.3672 36.3679 48.1087 36.0241C47.853 35.6776 47.7138 35.2756 47.6911 34.8182H48.7649C48.7876 35.0994 48.8842 35.3423 49.0547 35.5469C49.2251 35.7486 49.4482 35.9048 49.7237 36.0156C49.9993 36.1264 50.3047 36.1818 50.6399 36.1818C51.0149 36.1818 51.3473 36.1165 51.6371 35.9858C51.9268 35.8551 52.1541 35.6733 52.3189 35.4403C52.4837 35.2074 52.5661 34.9375 52.5661 34.6307C52.5661 34.3097 52.4865 34.027 52.3274 33.7827C52.1683 33.5355 51.9354 33.3423 51.6286 33.2031C51.3217 33.0639 50.9467 32.9943 50.5036 32.9943H49.8047V32.0568H50.5036C50.8501 32.0568 51.1541 31.9943 51.4155 31.8693C51.6797 31.7443 51.8857 31.5682 52.0334 31.3409C52.1839 31.1136 52.2592 30.8466 52.2592 30.5398C52.2592 30.2443 52.1939 29.9872 52.0632 29.7685C51.9325 29.5497 51.7479 29.3793 51.5092 29.2571C51.2734 29.1349 50.995 29.0739 50.674 29.0739C50.3729 29.0739 50.0888 29.1293 49.8217 29.2401C49.5575 29.348 49.3416 29.5057 49.174 29.7131C49.0064 29.9176 48.9155 30.1648 48.9013 30.4545H47.8786C47.8956 29.9972 48.0334 29.5966 48.2919 29.2528C48.5504 28.9062 48.8885 28.6364 49.3061 28.4432C49.7266 28.25 50.1882 28.1534 50.6911 28.1534C51.2308 28.1534 51.6939 28.2628 52.0803 28.4815C52.4666 28.6974 52.7635 28.983 52.9709 29.3381C53.1783 29.6932 53.282 30.0767 53.282 30.4886C53.282 30.9801 53.1527 31.3991 52.8942 31.7457C52.6385 32.0923 52.2905 32.3324 51.8501 32.4659V32.5341C52.4013 32.625 52.8317 32.8594 53.1413 33.2372C53.451 33.6122 53.6058 34.0767 53.6058 34.6307C53.6058 35.1051 53.4766 35.5312 53.218 35.9091C52.9624 36.2841 52.6129 36.5795 52.1697 36.7955C51.7266 37.0114 51.2223 37.1193 50.657 37.1193ZM55.3487 37V36.233L58.2294 33.0795C58.5675 32.7102 58.8459 32.3892 59.0646 32.1165C59.2834 31.8409 59.4453 31.5824 59.5504 31.3409C59.6584 31.0966 59.7124 30.8409 59.7124 30.5739C59.7124 30.267 59.6385 30.0014 59.4908 29.777C59.3459 29.5526 59.147 29.3793 58.8942 29.2571C58.6413 29.1349 58.3572 29.0739 58.0419 29.0739C57.7067 29.0739 57.4141 29.1435 57.1641 29.2827C56.9169 29.419 56.7251 29.6108 56.5888 29.858C56.4553 30.1051 56.3885 30.3949 56.3885 30.7273H55.3828C55.3828 30.2159 55.5007 29.767 55.7365 29.3807C55.9723 28.9943 56.2933 28.6932 56.6996 28.4773C57.1087 28.2614 57.5675 28.1534 58.076 28.1534C58.5874 28.1534 59.0405 28.2614 59.4354 28.4773C59.8303 28.6932 60.1399 28.9844 60.3643 29.3509C60.5888 29.7173 60.701 30.125 60.701 30.5739C60.701 30.8949 60.6428 31.2088 60.5263 31.5156C60.4126 31.8196 60.2138 32.1591 59.9297 32.5341C59.6484 32.9062 59.2578 33.3608 58.7578 33.8977L56.7976 35.9943V36.0625H60.8544V37H55.3487ZM66.5007 37H65.3928L68.5973 28.2727H69.6882L72.8928 37H71.7848L69.1768 29.6534H69.1087L66.5007 37ZM66.9098 33.5909H71.3757V34.5284H66.9098V33.5909ZM74.2521 28.2727H75.5135L78.4794 35.517H78.5817L81.5476 28.2727H82.8089V37H81.8203V30.3693H81.7351L79.0078 37H78.0533L75.326 30.3693H75.2408V37H74.2521V28.2727Z" fill="white" fill-opacity="0.4"/>
</svg>
